<?xml version="1.0" standalone="no"?>
<!DOCTYPE svg PUBLIC "-//W3C//DTD SVG 20010904//EN"
 "http://www.w3.org/TR/2001/REC-SVG-20010904/DTD/svg10.dtd">
<svg version="1.0" xmlns="http://www.w3.org/2000/svg"
 width="338.000000pt" height="688.000000pt" viewBox="0 0 338.000000 688.000000"
 preserveAspectRatio="xMidYMid meet">

<g transform="translate(0.000000,688.000000) scale(0.100000,-0.100000)"
fill="#000000" stroke="none">
<path d="M0 3440 l0 -3440 420 0 420 0 2 83 c2 102 2 102 -12 157 -15 59 -15
114 0 149 l11 29 84 -6 c50 -3 103 0 131 7 43 11 49 10 70 -10 23 -21 86 -134
99 -176 5 -17 2 -23 -9 -23 -9 0 -25 -9 -37 -21 -11 -11 -22 -19 -23 -17 -16
18 -26 53 -20 71 6 20 -11 -3 -116 -163 -49 -74 -52 -80 -45 -80 3 0 36 48 74
106 l68 106 6 -69 c4 -37 7 -85 7 -105 l0 -38 148 0 148 0 17 127 c10 71 31
190 48 265 40 182 127 509 141 525 14 18 138 18 139 1 1 -7 4 -2 8 12 4 14 14
24 22 23 8 -1 28 -5 44 -8 24 -5 22 -3 -8 9 -55 20 -83 50 -98 104 -7 26 -22
54 -32 63 -22 17 -16 59 8 59 8 0 17 5 21 12 5 8 2 9 -9 5 -20 -8 -21 -1 -6
96 12 76 29 118 62 155 34 36 42 25 9 -13 -34 -38 -50 -83 -57 -165 -4 -45 -2
-40 10 25 18 92 38 131 86 164 29 20 30 22 9 17 -19 -5 -21 -5 -9 3 18 12 115
-1 149 -19 11 -6 28 -28 38 -48 11 -24 30 -43 55 -56 30 -14 36 -21 26 -32 -6
-8 -17 -14 -23 -14 -7 0 -10 -14 -8 -39 3 -32 0 -42 -17 -53 -12 -7 -21 -18
-21 -25 0 -6 -8 -14 -17 -16 -17 -4 -17 -5 0 -6 20 -1 23 -31 5 -49 -9 -9 -6
-12 15 -12 24 0 27 -4 27 -31 0 -22 -9 -40 -31 -60 -17 -16 -35 -29 -40 -29
-5 0 -18 -9 -29 -20 -11 -11 -34 -23 -50 -27 -41 -8 -37 -20 9 -28 54 -9 193
-112 181 -134 -32 -59 -34 -59 -88 -14 l-50 42 -12 -45 c-7 -24 -16 -47 -20
-49 -5 -3 -6 -15 -2 -28 5 -20 4 -21 -14 -7 -18 14 -18 14 -4 -5 8 -11 29 -35
47 -53 l32 -34 17 34 c9 18 35 60 59 93 23 33 56 86 74 118 18 31 37 57 42 57
5 0 9 8 9 17 0 13 3 14 12 5 7 -7 16 -12 22 -12 5 0 -6 15 -26 33 -37 34 -61
87 -39 87 6 0 11 11 11 24 0 31 26 54 42 38 20 -20 23 -14 24 52 1 34 6 71 12
82 9 15 11 5 12 -51 0 -76 4 -86 38 -104 33 -17 28 -52 -16 -108 -42 -53 -63
-95 -38 -74 11 9 16 9 22 0 4 -7 2 -15 -4 -17 -7 -2 -12 -9 -12 -16 0 -7 -26
-53 -59 -102 -32 -49 -80 -124 -106 -167 -50 -83 -70 -107 -86 -107 -5 0 -29
18 -53 40 l-43 40 -11 -38 c-17 -54 -52 -351 -52 -438 l0 -74 770 0 770 0 0
3440 0 3440 -1690 0 -1690 0 0 -3440z m1835 -1555 c0 -34 -4 -41 -28 -49 -52
-19 -83 23 -52 70 13 20 23 25 48 22 30 -3 32 -5 32 -43z m379 -28 c14 -39 -2
-61 -47 -65 -28 -2 -37 1 -42 17 -6 21 9 60 29 74 21 14 51 2 60 -26z m-383
-90 c-10 -9 -11 -8 -5 6 3 10 9 15 12 12 3 -3 0 -11 -7 -18z m18 -154 c29 -32
57 -67 60 -77 6 -16 13 -9 39 37 18 31 32 61 32 67 0 5 4 10 10 10 12 0 23
-60 24 -122 0 -51 3 -53 54 -39 18 6 32 7 30 3 -2 -4 -12 -29 -22 -55 -19 -48
-39 -57 -44 -21 -2 11 -13 33 -26 48 -20 26 -30 29 -98 34 l-76 5 -49 -50
c-54 -53 -66 -85 -78 -206 -4 -37 -11 -70 -16 -73 -15 -9 -10 -37 11 -59 29
-30 37 -80 15 -89 -23 -8 -32 1 -17 16 18 18 14 28 -10 28 -37 0 -52 14 -33
30 23 19 19 26 -37 60 l-52 32 54 26 c41 19 50 28 40 34 -8 5 -39 22 -67 39
-29 16 -53 33 -53 37 0 4 32 19 70 32 39 13 70 28 70 32 0 5 -14 33 -31 64
-17 30 -29 57 -26 60 3 3 33 0 66 -7 34 -6 65 -8 69 -5 4 4 6 48 5 97 -2 105
1 105 86 12z m-615 -339 c32 -31 18 -66 -36 -88 -45 -19 -52 -30 -38 -55 6
-11 6 -22 1 -25 -17 -11 -23 46 -6 64 11 12 13 20 6 25 -17 10 -13 56 6 77 20
22 46 23 67 2z m-552 -31 c23 -20 23 -51 1 -75 -15 -17 -15 -20 -3 -28 8 -6
12 -10 7 -10 -4 0 -25 11 -47 25 -44 28 -51 56 -23 87 20 22 41 23 65 1z
m1998 -53 c0 -49 4 -69 12 -67 27 5 17 -38 -22 -104 -44 -71 -57 -80 -84 -53
-16 16 -13 56 6 81 6 7 6 18 0 29 -6 11 -11 13 -16 5 -4 -6 -2 -11 3 -11 6 0
11 -4 11 -10 0 -13 -27 -13 -35 0 -19 31 59 85 88 61 11 -8 13 -4 9 19 -6 40
7 120 19 120 5 0 9 -31 9 -70z m-617 -4 c6 -15 -1 -26 -15 -26 -4 0 -8 9 -8
20 0 23 15 27 23 6z m-1339 -82 c-4 -17 -1 -26 11 -30 14 -6 16 -15 11 -45 -5
-31 -3 -39 9 -39 21 0 35 -32 23 -53 -7 -14 -6 -23 6 -36 18 -20 22 -61 5 -61
-7 0 -9 10 -5 25 5 18 2 27 -10 32 -12 4 -14 14 -10 36 5 23 1 33 -19 49 -19
15 -23 23 -15 37 6 12 5 24 -4 37 -20 29 -25 91 -6 79 6 -3 7 -17 4 -31z m402
-83 c-11 -12 -15 -27 -11 -44 5 -20 2 -28 -17 -37 -22 -11 -22 -11 -3 5 17 14
18 18 6 37 -12 19 -11 24 9 40 15 12 20 24 16 40 l-6 23 11 -23 c10 -18 9 -26
-5 -41z m1477 -97 c-7 -18 -8 -18 -29 3 -13 13 -16 14 -12 3 2 -8 18 -19 35
-24 l30 -9 -86 -117 c-174 -237 -185 -250 -208 -250 -18 0 -183 123 -183 137
0 3 9 18 21 34 l21 29 63 -50 64 -50 34 43 c18 23 69 93 113 156 43 62 83 119
88 126 13 18 57 -10 49 -31z m37 1 c0 -8 -7 -15 -15 -15 -9 0 -12 6 -9 15 4 8
10 15 15 15 5 0 9 -7 9 -15z m-1548 -47 c-8 -8 -12 -9 -12 -1 0 6 -3 20 -6 30
-7 17 -6 17 12 1 14 -14 16 -20 6 -30z m-62 2 c19 -5 49 -21 65 -35 l30 -25
-50 26 c-42 21 -60 25 -115 22 -54 -3 -73 -9 -112 -36 -62 -42 -99 -107 -108
-186 l-7 -61 -2 60 c-3 168 140 280 299 235z m11 -30 c20 -6 44 -19 54 -30 10
-11 23 -17 29 -13 7 4 8 3 1 -5 -5 -5 -19 -12 -30 -15 -11 -3 -1 -5 23 -6 44
-1 82 -27 82 -56 0 -11 -11 -15 -42 -15 -30 0 -39 -3 -28 -9 8 -6 27 -7 42 -4
21 4 28 2 28 -10 0 -46 -81 -64 -116 -26 -12 13 -15 22 -7 27 7 5 7 11 -3 20
-24 22 -17 -35 7 -59 17 -17 30 -20 65 -16 43 4 44 4 44 -26 0 -40 -32 -106
-67 -139 -38 -35 -84 -48 -165 -48 -77 0 -125 16 -154 51 -10 13 -31 30 -46
36 -20 9 -28 20 -28 38 0 14 6 28 13 30 8 4 12 28 13 68 0 49 6 70 26 103 25
39 87 95 118 107 25 9 103 8 141 -3z m325 -410 c-4 -25 -2 -40 4 -40 18 0 11
-36 -25 -132 -69 -182 -87 -218 -107 -218 -33 0 -74 124 -47 141 31 19 42 10
36 -28 -8 -47 2 -34 40 52 36 83 51 167 28 159 -9 -4 -15 0 -15 8 0 23 12 29
28 15 13 -10 14 -9 8 2 -7 10 -3 12 13 6 19 -6 21 -2 21 28 0 31 6 47 18 47 2
0 2 -18 -2 -40z"/>
<path d="M2607 1109 c7 -7 15 -10 18 -7 3 3 -2 9 -12 12 -14 6 -15 5 -6 -5z"/>
<path d="M894 773 c4 -4 22 -6 40 -5 41 4 77 -24 82 -64 5 -42 -4 -62 -34 -79
-15 -8 -21 -14 -14 -15 22 0 62 48 62 75 0 60 -35 95 -96 95 -26 0 -44 -3 -40
-7z"/>
<path d="M850 675 c0 -15 3 -17 9 -7 5 9 25 13 59 11 29 -2 54 0 58 3 3 4 -24
8 -60 10 -61 3 -66 1 -66 -17z"/>
<path d="M877 629 c12 -12 24 -21 27 -18 2 2 -8 13 -22 23 l-27 19 22 -24z"/>
<path d="M1076 623 c6 -4 14 -15 17 -23 5 -11 6 -9 4 4 -1 11 -9 21 -17 23
-10 3 -11 2 -4 -4z"/>
<path d="M928 603 c7 -3 16 -2 19 1 4 3 -2 6 -13 5 -11 0 -14 -3 -6 -6z"/>
<path d="M1050 596 c0 -2 7 -6 15 -10 8 -3 15 -1 15 4 0 6 -7 10 -15 10 -8 0
-15 -2 -15 -4z"/>
<path d="M1037 520 c-20 -4 -41 -11 -45 -15 -4 -5 1 -5 11 -2 10 4 41 7 68 7
27 0 49 5 49 10 0 11 -26 11 -83 0z"/>
<path d="M1852 1416 c-31 -15 -51 -41 -39 -52 3 -3 14 -1 24 6 17 11 17 11 0
6 -39 -12 -10 19 31 34 32 11 52 12 92 4 28 -6 47 -7 42 -2 -17 17 -115 19
-150 4z"/>
<path d="M1871 1391 c-8 -5 5 -7 35 -4 27 3 51 7 53 9 9 8 -75 3 -88 -5z"/>
<path d="M2003 1368 c20 -12 37 -28 37 -35 0 -7 4 -13 9 -13 5 0 7 8 5 18 -5
18 -56 52 -77 52 -7 0 5 -10 26 -22z"/>
<path d="M1827 1322 c-10 -11 -16 -33 -16 -53 l2 -34 6 40 c4 29 13 43 31 52
16 8 19 13 9 13 -9 0 -23 -8 -32 -18z"/>
<path d="M1908 1330 c12 -5 27 -21 34 -35 10 -22 8 -30 -9 -53 -11 -15 -33
-30 -49 -33 -24 -6 -25 -7 -6 -8 38 -2 59 16 78 64 10 28 27 52 43 60 14 8 20
14 13 15 -7 0 -24 -11 -37 -25 -14 -13 -25 -20 -25 -15 0 15 -31 40 -48 39
-12 0 -11 -3 6 -9z"/>
<path d="M1880 1240 c0 -5 5 -10 10 -10 6 0 10 5 10 10 0 6 -4 10 -10 10 -5 0
-10 -4 -10 -10z"/>
<path d="M1965 1237 c3 -10 5 -23 5 -28 0 -5 10 -8 23 -8 14 1 16 3 6 6 -9 2
-22 14 -28 26 -7 14 -10 15 -6 4z"/>
<path d="M2030 1240 c0 -5 5 -10 11 -10 5 0 7 5 4 10 -3 6 -8 10 -11 10 -2 0
-4 -4 -4 -10z"/>
<path d="M1825 1220 c3 -5 11 -10 16 -10 6 0 7 5 4 10 -3 6 -11 10 -16 10 -6
0 -7 -4 -4 -10z"/>
<path d="M1824 1186 c11 -9 31 -16 45 -15 24 1 24 2 -5 8 -17 4 -37 11 -45 15
-8 4 -5 0 5 -8z"/>
<path d="M1976 1176 c3 -9 3 -24 -1 -33 -6 -16 -9 -14 -21 10 -17 32 -24 35
-17 7 8 -30 32 -47 44 -29 12 19 11 46 -1 54 -6 3 -7 -1 -4 -9z"/>
<path d="M1797 1122 c-24 -27 -21 -75 6 -98 22 -19 22 -19 5 2 -21 24 -24 77
-5 92 6 5 21 12 32 15 19 4 19 5 -1 6 -11 0 -28 -7 -37 -17z"/>
<path d="M1811 1096 c-30 -35 45 -96 118 -96 50 0 106 30 116 62 12 36 -10 44
-64 24 -49 -17 -51 -17 -97 3 -55 25 -58 25 -73 7z"/>
<path d="M2185 1030 c4 -11 2 -20 -4 -20 -6 0 -11 -5 -11 -11 0 -18 22 -5 31
18 5 15 3 23 -7 27 -12 4 -14 1 -9 -14z"/>
<path d="M1790 909 c0 -5 9 -9 20 -9 11 0 20 2 20 4 0 2 -9 6 -20 9 -11 3 -20
1 -20 -4z"/>
<path d="M1871 894 c0 -11 3 -14 6 -6 3 7 2 16 -1 19 -3 4 -6 -2 -5 -13z"/>
<path d="M1722 870 c7 -10 14 -18 15 -16 6 6 -9 36 -18 36 -5 0 -4 -9 3 -20z"/>
<path d="M1757 863 c-5 -23 2 -36 41 -75 25 -26 48 -45 50 -43 3 3 -15 25 -40
50 -36 35 -44 50 -40 70 2 14 2 25 -1 25 -2 0 -7 -12 -10 -27z"/>
<path d="M2190 864 c0 -2 9 -8 20 -14 11 -6 20 -7 20 -2 0 6 -9 12 -20 15 -11
3 -20 3 -20 1z"/>
<path d="M1862 840 c0 -14 2 -19 5 -12 2 6 2 18 0 25 -3 6 -5 1 -5 -13z"/>
<path d="M1892 840 c0 -14 2 -19 5 -12 2 6 2 18 0 25 -3 6 -5 1 -5 -13z"/>
<path d="M1663 798 c0 -7 -4 -22 -7 -33 -6 -16 -5 -15 6 3 11 18 16 20 28 10
8 -7 6 -3 -4 10 -22 26 -23 26 -23 10z"/>
<path d="M1852 790 c0 -14 2 -19 5 -12 2 6 2 18 0 25 -3 6 -5 1 -5 -13z"/>
<path d="M1911 744 c0 -11 3 -14 6 -6 3 7 2 16 -1 19 -3 4 -6 -2 -5 -13z"/>
<path d="M1726 730 c5 -8 8 -24 7 -35 -2 -18 -1 -18 4 -1 8 30 83 -48 84 -89
0 -30 0 -30 10 -6 9 23 4 31 -52 85 -34 34 -58 54 -53 46z"/>
<path d="M1860 726 c0 -2 8 -10 18 -17 15 -13 16 -12 3 4 -13 16 -21 21 -21
13z"/>
<path d="M1665 673 c4 -15 -1 -26 -17 -37 -12 -9 -18 -16 -12 -16 6 0 19 9 28
19 14 16 15 23 6 38 -10 16 -10 16 -5 -4z"/>
<path d="M1721 654 c0 -11 3 -14 6 -6 3 7 2 16 -1 19 -3 4 -6 -2 -5 -13z"/>
<path d="M1706 594 c-4 -14 -5 -28 -3 -31 3 -2 8 8 11 23 4 14 5 28 3 31 -3 2
-8 -8 -11 -23z"/>
<path d="M1603 595 c-3 -9 -3 -18 -1 -21 3 -3 8 4 11 16 6 23 -1 27 -10 5z"/>
<path d="M1812 530 c0 -19 2 -27 5 -17 2 9 2 25 0 35 -3 9 -5 1 -5 -18z"/>
<path d="M1681 509 c-7 -22 -11 -43 -8 -45 2 -2 9 14 16 37 7 22 11 43 8 45
-2 2 -9 -14 -16 -37z"/>
<path d="M1612 505 c0 -16 2 -22 5 -12 2 9 2 23 0 30 -3 6 -5 -1 -5 -18z"/>
<path d="M1802 460 c0 -19 2 -27 5 -17 2 9 2 25 0 35 -3 9 -5 1 -5 -18z"/>
<path d="M1651 404 c0 -11 3 -14 6 -6 3 7 2 16 -1 19 -3 4 -6 -2 -5 -13z"/>
<path d="M1835 399 c-4 -6 -5 -12 -2 -15 2 -3 7 2 10 11 7 17 1 20 -8 4z"/>
<path d="M1621 384 c0 -11 3 -14 6 -6 3 7 2 16 -1 19 -3 4 -6 -2 -5 -13z"/>
<path d="M1793 365 c0 -22 2 -30 4 -17 2 12 2 30 0 40 -3 9 -5 -1 -4 -23z"/>
<path d="M1096 381 c-3 -5 1 -11 9 -15 9 -3 15 0 15 9 0 16 -16 20 -24 6z"/>
<path d="M1080 346 c0 -9 -11 -21 -25 -26 -31 -12 -31 -15 0 -15 17 0 26 7 30
24 3 13 4 26 0 29 -3 3 -5 -2 -5 -12z"/>
<path d="M1101 328 c-1 -19 4 -28 14 -28 8 0 15 -5 15 -12 0 -6 3 -8 7 -5 3 4
-1 15 -9 24 -9 10 -18 25 -21 33 -3 8 -6 3 -6 -12z"/>
<path d="M1622 311 c-7 -21 -12 -45 -11 -52 0 -8 7 8 15 35 9 26 13 50 11 52
-2 2 -9 -13 -15 -35z"/>
<path d="M1017 283 c-12 -11 -8 -31 9 -48 15 -15 14 -19 -14 -58 -17 -23 -35
-41 -40 -40 -6 1 -12 -10 -15 -25 l-5 -27 25 30 c13 17 36 47 50 68 24 35 25
38 9 55 -21 24 -20 31 4 25 15 -4 20 -1 19 13 0 12 -3 14 -6 6 -3 -9 -9 -10
-17 -3 -7 6 -16 8 -19 4z"/>
<path d="M1780 234 c0 -36 -3 -45 -15 -41 -8 4 -17 2 -20 -3 -9 -15 -112 -12
-118 3 -4 10 -6 10 -6 0 -1 -7 -5 -13 -11 -13 -5 0 -7 15 -5 33 5 37 -6 -4
-31 -113 -8 -36 -17 -73 -20 -82 -4 -15 1 -18 25 -18 23 0 31 5 31 18 0 14 7
17 40 14 26 -3 40 -9 40 -18 0 -10 14 -14 50 -14 l50 0 0 140 c0 77 -2 140 -5
140 -3 0 -5 -21 -5 -46z m-60 -79 c0 -9 -9 -15 -25 -15 -16 0 -25 6 -25 15 0
9 9 15 25 15 16 0 25 -6 25 -15z"/>
<path d="M950 182 c0 -5 -12 -13 -27 -18 l-28 -10 32 0 c24 1 33 6 33 19 0 9
-2 17 -5 17 -3 0 -5 -4 -5 -8z"/>
<path d="M850 152 c0 -7 11 -23 24 -35 13 -12 29 -39 37 -60 7 -21 20 -44 29
-50 12 -10 13 -9 4 3 -6 8 -19 36 -29 63 -10 26 -21 47 -26 47 -5 0 -6 8 -3
18 5 13 4 14 -4 3 -8 -11 -12 -10 -21 5 -6 11 -11 13 -11 6z"/>
</g>
</svg>
