<?xml version="1.0" standalone="no"?>
<!DOCTYPE svg PUBLIC "-//W3C//DTD SVG 20010904//EN"
 "http://www.w3.org/TR/2001/REC-SVG-20010904/DTD/svg10.dtd">
<svg version="1.0" xmlns="http://www.w3.org/2000/svg"
 width="407.000000pt" height="124.000000pt" viewBox="0 0 407.000000 124.000000"
 preserveAspectRatio="xMidYMid meet">

<g transform="translate(0.000000,124.000000) scale(0.100000,-0.100000)"
fill="#000000" stroke="none">
<path d="M2673 1163 c-17 -27 -33 -63 -36 -81 -4 -18 -16 -45 -27 -60 -12 -16
-30 -64 -41 -107 -10 -43 -26 -86 -35 -96 -24 -26 -44 -106 -44 -173 0 -88
-20 -58 -26 40 -3 44 -8 86 -11 94 -6 16 -9 32 -18 95 -4 22 -11 50 -18 63 -8
17 -8 34 3 70 18 63 18 97 1 97 -13 0 -34 -34 -68 -112 -20 -48 -25 -50 -48
-27 -9 9 -17 15 -19 13 -13 -15 -26 -52 -26 -72 0 -13 -11 -61 -25 -106 -20
-69 -24 -95 -18 -157 6 -69 4 -76 -22 -114 -24 -35 -27 -46 -21 -87 4 -27 9
-95 11 -152 5 -105 10 -126 25 -116 17 10 40 115 38 169 -2 45 2 59 20 79 16
17 22 36 22 68 0 24 5 73 10 108 6 35 12 99 13 142 1 51 7 83 16 91 11 11 12
7 7 -23 -5 -26 -2 -40 9 -49 8 -7 15 -18 15 -26 0 -7 6 -17 14 -21 7 -4 18
-28 24 -53 6 -25 15 -63 21 -85 6 -22 11 -54 11 -72 0 -23 6 -33 20 -38 12 -4
20 -15 20 -28 0 -28 29 -72 40 -60 5 4 11 28 15 53 4 24 11 52 16 62 5 9 9 32
9 50 0 18 11 54 25 80 18 33 25 63 25 100 0 29 5 60 10 68 8 12 10 10 10 -9 0
-14 7 -32 16 -42 14 -16 14 -22 -2 -73 -14 -46 -15 -62 -6 -94 7 -22 12 -59
12 -83 0 -26 8 -57 19 -75 14 -23 18 -43 14 -72 -3 -24 -1 -42 6 -46 6 -4 11
-16 11 -27 0 -10 9 -28 19 -38 11 -11 21 -31 23 -46 2 -14 8 -26 13 -26 6 0
15 -5 21 -10 6 -5 13 -6 17 -3 9 9 -5 77 -21 101 -10 16 -12 34 -8 59 5 23 3
41 -5 51 -20 24 -25 94 -15 233 3 41 1 79 -3 85 -5 5 -11 35 -15 65 -3 30 -10
84 -15 120 -24 176 -24 172 -1 235 12 33 25 72 27 88 8 44 -20 33 -54 -20z
m25 -35 c-27 -61 -29 -134 -9 -268 7 -47 15 -107 18 -135 3 -27 8 -54 13 -60
10 -14 3 -130 -9 -154 -8 -13 -8 -28 -1 -46 5 -14 10 -41 10 -59 0 -18 6 -41
14 -51 8 -12 12 -33 9 -56 -4 -25 0 -45 11 -60 20 -29 21 -66 2 -66 -7 0 -11
7 -9 17 2 8 -5 24 -16 34 -12 11 -21 29 -21 41 0 13 -7 28 -15 35 -11 9 -14
23 -9 45 4 21 -1 44 -14 71 -26 50 -37 194 -21 258 10 39 9 50 -5 71 -9 13
-16 38 -16 55 0 16 -5 30 -10 30 -17 0 -30 -47 -30 -108 0 -45 -6 -66 -25 -94
-15 -22 -25 -51 -25 -71 0 -19 -7 -51 -15 -70 -8 -20 -15 -50 -15 -67 0 -44
-19 -37 -26 10 -4 26 -13 41 -25 45 -13 5 -19 16 -19 38 0 18 -5 50 -11 72 -5
22 -15 57 -20 79 -5 21 -21 53 -34 70 -17 23 -25 46 -25 74 0 71 -28 63 -47
-15 -6 -23 -8 -53 -5 -68 2 -15 -1 -68 -8 -118 -7 -51 -12 -104 -11 -119 0
-15 -10 -44 -24 -65 -21 -30 -25 -44 -20 -75 7 -37 -11 -134 -27 -153 -8 -9
-14 82 -9 140 1 17 -3 54 -10 84 -12 51 -12 56 12 95 20 34 25 59 30 146 3 58
13 134 22 170 9 36 20 78 23 94 4 21 8 26 14 17 4 -8 13 -10 19 -7 6 4 11 2
11 -3 0 -6 3 -11 8 -11 6 0 25 38 68 138 7 17 18 32 24 32 13 0 13 0 -5 -50
-17 -47 -20 -96 -6 -104 4 -3 11 -38 15 -78 4 -40 11 -77 16 -82 6 -6 10 -36
10 -68 0 -60 19 -148 31 -148 12 0 18 28 27 121 7 62 16 98 34 130 14 24 31
69 38 99 7 30 25 78 41 106 16 28 29 59 29 69 0 23 63 122 68 107 2 -6 -7 -34
-20 -64z"/>
<path d="M224 1095 c-39 -28 -55 -34 -79 -29 -22 4 -38 0 -57 -15 -14 -12 -33
-21 -42 -21 -21 0 -21 -43 0 -61 13 -10 15 -24 11 -61 -5 -39 -2 -53 19 -83
16 -24 24 -49 23 -73 -2 -42 9 -107 21 -137 15 -36 23 -79 25 -142 1 -34 8
-69 14 -77 9 -10 11 -29 6 -56 -5 -31 -2 -51 14 -85 12 -25 21 -56 21 -70 0
-14 4 -33 9 -43 6 -9 12 -30 16 -45 7 -36 41 -34 37 2 -1 12 4 32 12 43 14 20
11 132 -4 153 -4 6 -6 43 -4 83 2 40 0 81 -5 91 -16 29 2 45 24 21 10 -11 28
-20 41 -20 14 0 31 -12 44 -30 11 -16 27 -27 34 -24 25 10 67 -15 78 -47 9
-25 15 -30 33 -25 19 5 27 -1 44 -29 11 -19 27 -35 35 -35 8 0 18 -9 21 -20 3
-11 22 -32 40 -46 19 -14 34 -29 34 -32 -4 -27 8 -48 55 -97 30 -31 56 -52 60
-47 10 17 -20 110 -47 142 -15 17 -27 40 -27 50 0 10 -13 27 -30 37 -16 9 -30
21 -30 25 0 4 -9 16 -21 27 -11 10 -28 32 -37 49 -51 91 -76 118 -106 113 -5
-1 -15 7 -23 19 -8 11 -18 18 -22 16 -4 -3 -14 6 -21 19 -7 14 -19 25 -27 25
-7 0 -13 2 -13 4 0 12 47 54 68 60 51 16 124 262 90 303 -7 8 -11 29 -10 45 3
40 -23 70 -54 62 -20 -5 -24 -2 -24 15 0 15 -6 21 -23 21 -13 0 -48 13 -78 30
-30 16 -63 30 -75 30 -11 0 -43 -16 -70 -35z m155 -15 c22 -11 49 -20 61 -20
13 0 20 -7 20 -20 0 -16 7 -20 35 -20 34 0 35 -1 35 -38 0 -21 6 -44 12 -50
15 -15 12 -131 -3 -146 -5 -6 -9 -18 -9 -27 0 -10 -7 -30 -14 -46 -8 -15 -17
-36 -20 -46 -3 -9 -18 -23 -33 -29 -15 -7 -41 -25 -56 -40 l-28 -27 25 -16
c14 -9 28 -25 31 -36 4 -10 13 -19 21 -19 8 0 17 -7 20 -15 4 -8 17 -15 30
-15 17 0 31 -11 48 -38 13 -20 31 -43 40 -51 9 -7 16 -20 16 -28 0 -8 25 -38
55 -68 30 -29 55 -57 55 -63 0 -5 16 -33 35 -62 19 -29 35 -64 35 -78 0 -25 0
-25 -22 -6 -40 33 -58 58 -68 95 -6 20 -20 41 -34 48 -13 7 -29 24 -35 37 -6
13 -22 29 -35 35 -14 7 -30 25 -37 41 -9 23 -17 29 -35 25 -18 -3 -25 2 -35
24 -12 31 -61 61 -84 53 -8 -3 -21 6 -30 20 -10 14 -27 26 -38 26 -11 0 -31
10 -44 22 -22 20 -25 21 -40 5 -13 -13 -14 -21 -6 -39 6 -13 9 -57 7 -98 -1
-42 2 -80 8 -87 6 -7 8 -27 4 -44 -3 -17 -1 -40 5 -51 8 -15 7 -24 -5 -37 -9
-10 -16 -31 -16 -47 -1 -25 -2 -26 -11 -11 -5 9 -8 21 -5 26 3 4 -1 17 -9 27
-8 10 -15 31 -15 45 0 14 -8 41 -18 60 -9 19 -18 59 -19 89 -6 124 -10 167
-22 203 -7 21 -10 41 -7 44 3 4 -1 17 -9 30 -9 13 -18 58 -22 106 -4 63 -10
87 -26 104 -16 18 -20 35 -18 76 1 38 -3 58 -14 67 -20 16 -19 50 1 50 9 0 27
9 41 20 16 13 34 17 51 14 19 -4 39 2 67 21 71 49 79 49 164 5z"/>
<path d="M241 959 c-13 -10 -34 -19 -47 -19 -28 0 -40 -21 -29 -47 5 -10 7
-26 6 -36 -1 -10 5 -29 13 -42 9 -13 16 -35 16 -49 0 -14 5 -28 10 -31 6 -3
10 -17 10 -30 0 -13 4 -26 10 -30 5 -3 7 -12 3 -20 -3 -8 -2 -22 1 -31 5 -13
9 -14 21 -4 12 10 18 10 30 0 12 -10 20 -8 41 9 15 12 33 21 40 21 20 0 44 29
44 54 0 13 9 31 20 41 16 14 20 29 18 64 -1 25 -7 52 -13 60 -5 8 -15 28 -20
45 -8 24 -15 30 -32 28 -13 -2 -26 4 -32 15 -13 26 -79 27 -110 2z m104 -15
c6 -7 21 -14 35 -16 15 -2 24 -9 22 -17 -2 -7 5 -22 15 -33 25 -27 26 -96 2
-126 -10 -14 -19 -36 -19 -49 0 -19 -10 -28 -47 -45 -27 -12 -62 -22 -80 -22
-28 -1 -31 2 -27 20 3 12 1 25 -5 28 -6 4 -11 18 -11 31 0 13 -4 27 -10 30 -5
3 -10 19 -10 35 0 16 -4 32 -10 35 -5 3 -10 21 -10 40 0 19 -4 37 -10 40 -21
13 -10 35 18 35 15 0 38 9 52 20 27 20 77 17 95 -6z"/>
<path d="M3616 883 c-12 -144 -1 -235 35 -306 6 -11 5 -34 -4 -65 -8 -26 -12
-53 -10 -59 3 -8 -14 -21 -42 -33 -26 -11 -45 -25 -43 -32 3 -7 -9 -23 -24
-36 -19 -16 -28 -32 -26 -47 3 -27 -92 -134 -164 -183 -44 -30 -78 -67 -78
-84 0 -16 38 -7 56 13 24 27 67 49 94 49 31 0 104 73 165 164 29 45 70 92 90
105 20 13 45 37 56 52 11 16 40 37 64 48 25 11 50 30 56 43 6 13 35 38 64 57
81 51 142 108 130 119 -11 11 -42 -3 -113 -50 -44 -30 -166 -82 -157 -68 3 5
-4 24 -15 42 -12 21 -20 51 -20 80 0 31 -9 63 -25 94 -14 26 -25 53 -25 61 0
20 -41 113 -50 113 -4 0 -10 -34 -14 -77z m49 -25 c14 -46 32 -92 40 -102 8
-11 15 -40 15 -65 0 -25 7 -59 16 -76 10 -20 13 -41 9 -65 l-7 -35 24 22 c12
12 48 31 78 43 30 12 71 34 90 49 68 54 115 68 62 19 -31 -29 -131 -98 -142
-98 -4 0 -12 -11 -18 -25 -6 -13 -33 -35 -60 -49 -27 -14 -56 -36 -65 -50 -9
-14 -37 -39 -61 -55 -25 -17 -48 -41 -52 -54 -17 -55 -161 -207 -196 -207 -14
0 -45 -16 -69 -35 -24 -19 -48 -35 -53 -35 -14 0 24 40 69 71 22 16 70 59 108
97 57 57 66 71 62 93 -5 22 0 30 29 48 20 12 33 28 30 35 -3 8 11 19 36 29 33
13 40 20 40 43 0 14 5 44 12 65 8 28 8 46 1 62 -29 59 -45 194 -36 294 3 35 7
63 9 63 2 0 15 -37 29 -82z"/>
<path d="M627 943 c-3 -5 -8 -31 -12 -59 -6 -48 -5 -52 20 -68 23 -15 29 -16
40 -4 20 21 27 88 9 95 -7 3 -14 14 -14 24 0 19 -34 28 -43 12z m33 -23 c0
-11 5 -20 10 -20 6 0 10 -16 10 -35 0 -41 -23 -56 -48 -32 -12 13 -13 21 -4
41 6 13 8 33 5 45 -4 15 -1 21 11 21 9 0 16 -8 16 -20z"/>
<path d="M1113 933 c-21 -4 -23 -10 -23 -65 0 -33 -11 -102 -25 -154 -14 -52
-25 -98 -25 -104 0 -15 21 -12 42 7 19 17 19 16 13 -12 -4 -17 -10 -42 -15
-57 -5 -15 -6 -36 -3 -47 3 -11 -2 -53 -11 -94 -16 -71 -14 -107 5 -107 13 0
45 77 54 130 9 55 33 76 56 51 23 -25 39 -57 39 -79 0 -11 7 -25 15 -32 19
-16 62 -111 71 -155 6 -34 34 -50 34 -20 0 8 6 14 13 13 7 -2 12 7 11 22 -2
32 -33 156 -50 195 -7 17 -15 38 -18 48 -3 9 -16 21 -29 26 -27 11 -88 97 -81
114 3 7 22 20 44 30 21 10 42 28 46 40 4 12 36 51 71 85 45 44 62 67 55 74
-13 13 -84 -26 -121 -66 -14 -14 -30 -26 -36 -26 -6 0 -26 -11 -45 -25 -37
-28 -59 -20 -41 14 8 13 8 33 2 61 -6 26 -5 53 1 74 6 19 8 41 5 50 -6 16 -13
17 -54 9z m38 -52 c-5 -20 -7 -157 -2 -193 1 -9 56 19 71 37 7 8 20 15 30 15
9 0 25 10 36 21 25 29 94 79 108 79 6 0 -19 -28 -55 -62 -37 -35 -70 -73 -74
-86 -3 -12 -24 -31 -46 -43 -22 -11 -42 -26 -45 -34 -9 -22 63 -122 91 -129
16 -4 25 -14 25 -25 0 -11 6 -32 14 -48 8 -15 21 -57 29 -93 9 -36 19 -74 23
-85 7 -18 6 -18 -9 -6 -15 12 -17 10 -18 -15 -1 -25 -3 -22 -14 16 -11 38 -37
95 -73 160 -5 8 -19 37 -32 64 -13 26 -29 50 -36 53 -28 11 -50 -16 -61 -74
-15 -78 -31 -119 -43 -107 -6 6 -6 22 0 44 6 19 15 77 20 128 6 52 13 104 16
118 7 29 -19 34 -35 7 -20 -37 -19 -4 5 82 13 50 24 118 24 152 0 49 3 61 14
57 8 -3 17 0 21 6 12 20 24 -9 16 -39z"/>
<path d="M3442 888 c-27 -35 -59 -139 -74 -242 -2 -12 -17 -24 -38 -31 -19 -6
-35 -18 -35 -25 0 -7 16 -18 35 -24 26 -8 34 -17 33 -31 -9 -87 -7 -299 3
-312 17 -24 29 8 46 127 14 103 16 123 17 164 1 32 4 37 19 30 9 -4 29 -8 44
-8 14 -1 30 -4 34 -8 20 -21 72 4 74 35 0 11 -90 48 -100 42 -5 -3 -11 -1 -15
5 -3 5 -18 10 -32 10 -19 0 -24 4 -19 17 4 9 14 45 22 80 13 48 14 66 5 77 -9
11 -8 22 8 52 11 20 18 41 15 46 -8 12 -30 10 -42 -4z m28 -8 c0 -6 -7 -25
-16 -41 -11 -23 -13 -34 -4 -44 9 -11 7 -32 -9 -90 -27 -96 -27 -95 9 -95 17
0 30 -4 30 -10 0 -5 9 -10 20 -10 15 0 63 -16 79 -27 2 -1 -3 -9 -12 -17 -15
-15 -16 -15 -105 12 -39 13 -40 12 -47 -73 -6 -73 -33 -246 -40 -253 -5 -5 1
279 7 312 2 13 -5 21 -27 28 -60 19 -61 21 -20 33 39 12 40 13 52 76 16 87 27
127 49 172 17 35 34 49 34 27z"/>
<path d="M3086 818 c-11 -31 -15 -217 -5 -223 5 -4 9 -21 8 -38 -2 -18 -2 -67
-1 -110 2 -69 4 -78 19 -75 19 3 32 48 38 131 4 56 15 76 15 28 0 -22 11 -46
33 -74 21 -26 39 -64 47 -101 14 -60 34 -91 52 -80 6 4 7 20 3 38 -3 17 -9 57
-13 88 -4 32 -13 63 -20 70 -7 7 -12 23 -12 37 0 14 -11 37 -25 51 l-25 27 50
27 c58 32 72 62 45 103 -10 15 -18 38 -19 52 -1 22 -7 27 -46 33 -42 8 -47 6
-73 -22 -28 -32 -33 -29 -39 19 -3 27 -25 40 -32 19z m38 -95 c2 -3 17 13 31
36 24 36 30 40 59 35 51 -9 58 -13 52 -30 -3 -8 4 -33 16 -54 26 -45 20 -58
-48 -92 -51 -25 -54 -35 -19 -68 14 -13 25 -33 25 -44 1 -12 7 -32 15 -46 8
-14 14 -44 15 -67 0 -23 5 -54 12 -68 12 -28 3 -48 -12 -25 -5 8 -13 37 -16
63 -5 35 -18 62 -45 98 -26 31 -39 59 -39 78 0 16 -4 32 -9 35 -17 11 -28 -20
-35 -99 -8 -103 -27 -126 -25 -30 1 39 0 75 -2 80 -2 6 1 21 5 34 6 16 3 28
-7 38 -11 11 -13 34 -10 106 6 113 14 138 24 74 4 -27 10 -51 13 -54z"/>
<path d="M3156 705 l-27 -35 22 -30 c13 -16 26 -30 29 -30 17 0 40 40 40 68 0
17 5 34 10 37 19 12 10 25 -19 25 -21 0 -36 -9 -55 -35z m61 7 c-9 -10 -14
-27 -11 -38 3 -12 -1 -26 -11 -34 -15 -13 -20 -12 -35 8 -18 21 -18 23 8 52
15 16 35 30 46 30 18 0 18 -1 3 -18z"/>
<path d="M2856 729 c-31 -29 -56 -60 -56 -69 0 -9 -7 -26 -16 -39 -14 -19 -15
-29 -5 -60 6 -20 12 -56 14 -80 2 -40 5 -46 31 -52 15 -4 36 -15 45 -23 28
-25 89 -5 134 45 39 44 45 67 25 102 -7 12 -13 55 -13 94 0 64 -3 75 -25 97
-14 14 -37 28 -52 31 -23 6 -35 -1 -82 -46z m121 16 c27 -19 41 -95 24 -132
-10 -21 -8 -30 9 -58 11 -18 20 -38 20 -44 0 -6 -19 -32 -41 -56 -46 -50 -80
-58 -124 -29 -13 9 -32 17 -42 18 -14 2 -19 13 -21 52 -1 27 -7 59 -13 71 -9
16 -8 26 5 44 9 13 16 29 16 37 0 7 19 35 43 63 46 53 82 63 124 34z"/>
<path d="M2887 689 c-9 -6 -17 -20 -17 -33 0 -12 -7 -31 -15 -42 -25 -33 -18
-73 17 -105 33 -31 77 -37 69 -9 -2 8 -4 35 -3 60 0 28 -5 51 -15 62 -10 11
-13 26 -9 42 7 29 -3 38 -27 25z m15 -34 c-2 -14 2 -32 9 -41 16 -19 22 -124
7 -124 -5 0 -23 13 -39 29 -32 32 -38 71 -14 91 8 7 15 22 15 35 0 12 3 25 7
28 13 14 20 6 15 -18z"/>
<path d="M653 763 c-21 -4 -22 -9 -21 -96 1 -51 4 -96 7 -102 3 -5 7 -30 8
-55 1 -25 6 -72 10 -105 15 -117 55 -48 54 94 0 24 4 52 10 63 8 15 7 24 -7
39 -12 13 -15 29 -11 56 7 43 -4 106 -18 108 -6 1 -20 0 -32 -2z m39 -36 c0
-12 0 -45 -1 -73 -2 -35 2 -54 13 -63 14 -12 14 -15 0 -36 -12 -19 -13 -28 -4
-45 8 -16 9 -30 1 -52 -6 -17 -11 -48 -11 -69 0 -66 -17 -43 -25 34 -4 39 -7
86 -6 102 1 17 -4 40 -10 52 -8 15 -9 30 -1 52 6 17 7 33 3 36 -5 2 -8 22 -8
43 0 33 3 38 23 40 18 1 24 -4 26 -21z"/>
<path d="M1965 760 c-4 -6 -16 -46 -28 -89 -18 -63 -31 -88 -69 -130 -43 -47
-46 -49 -38 -22 4 16 11 59 15 95 6 58 5 66 -9 66 -11 0 -25 -19 -39 -52 -11
-28 -23 -46 -25 -40 -2 7 -9 12 -16 12 -7 0 -17 15 -22 32 -6 18 -17 34 -27
36 -14 3 -17 -5 -17 -55 0 -62 -14 -101 -25 -72 -3 9 -14 55 -23 103 -10 48
-22 88 -27 89 -6 1 -17 -13 -27 -31 -9 -19 -24 -39 -33 -46 -11 -8 -19 -35
-25 -82 -4 -39 -12 -80 -19 -92 -14 -27 -4 -102 15 -102 11 0 27 28 30 55 0 6
4 18 7 28 4 9 9 24 12 32 7 24 24 18 36 -12 30 -77 40 -93 55 -93 14 0 16 8
12 45 -3 25 -2 45 3 45 5 0 9 -11 9 -25 0 -18 5 -25 20 -25 17 0 20 7 20 46 0
38 3 44 13 35 8 -6 22 -29 32 -51 18 -39 45 -55 45 -25 0 10 8 6 25 -10 26
-27 80 -34 88 -12 3 6 10 -1 16 -16 7 -19 17 -27 29 -25 13 3 16 12 14 43 -5
64 -5 174 1 268 4 68 2 87 -8 87 -8 0 -17 -5 -20 -10z m17 -77 c-8 -114 -7
-223 3 -267 6 -30 5 -38 -5 -34 -8 2 -19 19 -25 37 l-11 33 -15 -23 c-14 -20
-20 -22 -50 -13 -56 16 -52 70 10 131 30 30 42 53 56 108 17 66 32 105 39 105
2 0 1 -35 -2 -77z m-357 -15 c4 -29 13 -75 20 -103 17 -66 27 -165 17 -165 -5
0 -15 19 -22 43 -16 50 -37 87 -50 87 -11 0 -44 -69 -55 -115 l-8 -30 -8 38
c-7 29 -5 46 7 70 10 17 18 56 19 86 1 41 7 57 23 70 11 9 24 28 27 44 11 42
22 32 30 -25z m198 -121 l-17 -116 -27 48 c-15 26 -34 53 -43 60 -14 12 -16 8
-16 -43 0 -31 -4 -56 -9 -56 -14 0 -20 70 -12 150 7 70 8 73 19 47 7 -16 12
-33 12 -38 0 -5 6 -9 13 -9 8 0 20 -12 27 -27 l13 -28 7 30 c10 42 39 109 45
103 3 -3 -3 -57 -12 -121z"/>
<path d="M1896 515 c-30 -27 -33 -47 -11 -65 21 -18 55 14 55 51 0 39 -13 43
-44 14z m34 -13 c0 -25 -35 -58 -45 -42 -8 12 20 60 35 60 6 0 10 -8 10 -18z"/>
<path d="M1574 605 c-17 -41 -14 -48 22 -52 23 -4 25 -1 22 38 -4 55 -24 61
-44 14z m32 -42 c-1 -1 -7 2 -14 6 -9 5 -11 17 -6 37 l8 29 7 -35 c4 -19 7
-36 5 -37z"/>
<path d="M893 748 c-13 -6 -23 -17 -23 -24 0 -6 -15 -21 -33 -32 -26 -15 -35
-28 -40 -57 -3 -20 -16 -57 -28 -82 -14 -28 -18 -48 -12 -52 6 -3 10 -17 9
-31 -1 -19 5 -26 22 -28 12 -2 22 -10 22 -18 0 -8 4 -22 9 -32 5 -9 12 -25 15
-34 8 -28 25 -21 43 17 10 20 24 35 34 35 10 0 21 5 24 10 3 6 19 10 34 10 33
0 66 32 57 55 -4 13 -10 14 -26 5 -14 -7 -26 -8 -39 0 -25 13 -78 13 -86 0 -9
-15 -25 -12 -25 5 0 8 6 24 12 35 10 16 10 24 -1 42 -13 21 -11 25 28 58 22
19 41 41 41 47 0 7 19 16 43 20 32 7 42 13 42 28 0 16 -7 20 -32 20 -17 0 -35
3 -39 8 -10 9 -24 8 -51 -5z m114 -23 c-2 -5 -19 -12 -38 -16 -41 -6 -61 -17
-54 -29 3 -4 -10 -20 -27 -35 -44 -36 -51 -51 -37 -73 9 -14 8 -25 -4 -48 -18
-36 -8 -61 19 -49 33 13 77 15 90 4 8 -6 25 -8 39 -5 19 5 23 3 19 -9 -6 -14
-18 -19 -37 -16 -4 1 -21 -6 -37 -14 -16 -9 -33 -15 -37 -13 -5 1 -17 -13 -28
-30 -23 -36 -35 -40 -35 -13 0 11 -4 23 -10 26 -5 3 -10 15 -10 25 0 12 -8 20
-22 22 -24 4 -25 8 -13 47 6 20 4 23 -9 18 -14 -6 -14 -2 3 31 10 20 25 57 32
82 10 32 22 49 42 58 15 7 27 19 27 27 0 18 16 23 78 22 31 -1 51 -5 49 -12z"/>
</g>
</svg>
